<?xml version="1.0" encoding="utf-8"?>
<!-- Generator: Adobe Illustrator 24.1.3, SVG Export Plug-In . SVG Version: 6.00 Build 0)  -->
<svg version="1.1" id="Слой_1" xmlns="http://www.w3.org/2000/svg" xmlns:xlink="http://www.w3.org/1999/xlink" x="0px" y="0px"
	 viewBox="0 0 100 100" style="enable-background:new 0 0 100 100;" xml:space="preserve">
<style type="text/css">
	.st0{fill:#E30613;}
	.st1{fill:#FFFFFF;}
</style>
<circle class="st0" cx="50" cy="50.1" r="50"/>
<g>
	<path class="st1" d="M29,63.8V41.9c0-2.7,1.1-4.9,3.3-6.7c2.2-1.7,5.1-2.6,8.6-2.6c4.2,0,7.4,1.4,9.6,4.3c1.4-1.5,2.8-2.6,4.4-3.3
		c1.6-0.7,3.5-1,5.8-1c3.7,0,6.5,0.9,8.4,2.6s2.9,4.2,2.9,7.4v21.1H60V44c0-1-0.1-1.6-0.3-1.9c-0.2-0.3-0.6-0.5-1.3-0.5
		c-1.2,0-1.8,0.8-1.8,2.3v19.9H44.5V44c0-1-0.1-1.6-0.3-1.9c-0.2-0.3-0.6-0.5-1.3-0.5c-1.2,0-1.8,0.8-1.8,2.4v19.8H29z"/>
</g>
</svg>
